<?xml version="1.0" standalone="no"?>
<!DOCTYPE svg PUBLIC "-//W3C//DTD SVG 20010904//EN"
 "http://www.w3.org/TR/2001/REC-SVG-20010904/DTD/svg10.dtd">
<svg version="1.0" xmlns="http://www.w3.org/2000/svg"
 width="1267.000000pt" height="1280.000000pt" viewBox="0 0 1267.000000 1280.000000"
 preserveAspectRatio="xMidYMid meet">

<g transform="translate(0.000000,1280.000000) scale(0.100000,-0.100000)"
fill="#000000" stroke="none">
<path d="M11850 12789 c-629 -45 -1119 -226 -1459 -536 -109 -99 -485 -532
-897 -1033 -1238 -1505 -2623 -3437 -4029 -5618 -213 -331 -277 -415 -349
-457 -126 -73 -184 -28 -321 250 -96 196 -165 367 -310 780 -141 401 -253 562
-443 636 -111 44 -339 22 -550 -53 -354 -125 -751 -394 -892 -604 -99 -149
-118 -264 -80 -488 53 -314 237 -930 505 -1691 235 -668 447 -1099 622 -1266
67 -65 116 -92 190 -108 105 -22 384 -33 705 -28 273 4 338 8 418 25 184 39
324 104 429 198 37 33 151 197 427 612 1983 2985 4045 5731 6365 8477 388 461
507 642 484 745 -15 68 -91 122 -206 146 -92 18 -436 26 -609 13z"/>
<path d="M5911 12079 c-1276 -53 -2529 -507 -3530 -1277 -437 -337 -875 -779
-1193 -1206 -549 -735 -926 -1595 -1088 -2481 -69 -377 -94 -662 -94 -1070 0
-329 10 -497 50 -795 316 -2382 2102 -4387 4480 -5029 563 -152 1059 -216
1664 -215 360 1 561 14 880 59 1181 168 2272 661 3186 1439 154 131 515 489
640 636 912 1063 1420 2345 1462 3688 41 1289 -290 2456 -1000 3532 -107 164
-324 455 -338 455 -7 0 -294 -327 -533 -607 l-48 -57 86 -108 c431 -543 720
-1190 850 -1907 98 -537 117 -1217 49 -1746 -54 -423 -178 -884 -344 -1286
-607 -1466 -1883 -2586 -3445 -3024 -1368 -383 -2874 -204 -4094 488 -1134
642 -1971 1643 -2382 2850 -429 1257 -340 2654 246 3847 270 550 594 998 1036
1431 839 821 1903 1327 3099 1474 495 61 1171 46 1660 -36 447 -75 799 -188
1205 -388 83 -41 150 -73 151 -72 1 0 124 158 273 350 254 325 271 351 254
364 -47 36 -364 184 -563 264 -553 222 -1076 345 -1728 408 -114 11 -579 31
-662 28 -25 0 -128 -5 -229 -9z"/>
</g>
</svg>
